<svg width="260" height="240" viewBox="0 0 260 240" fill="none" xmlns="http://www.w3.org/2000/svg">
  <defs>
    <filter id="paper" x="-20%" y="-20%" width="140%" height="140%" color-interpolation-filters="sRGB">
      <feTurbulence type="fractalNoise" baseFrequency="0.9" numOctaves="3" seed="17" result="noise" />
      <feColorMatrix in="noise" type="matrix" values="0 0 0 0 0.78 0 0 0 0 0.58 0 0 0 0 0.42 0 0 0 .18 0" result="grain" />
      <feBlend in="SourceGraphic" in2="grain" mode="multiply" />
    </filter>
    <linearGradient id="fur" x1="64" x2="196" y1="38" y2="218" gradientUnits="userSpaceOnUse">
      <stop stop-color="#F8D5A1" />
      <stop offset="0.52" stop-color="#C8895E" />
      <stop offset="1" stop-color="#8E5A42" />
    </linearGradient>
    <linearGradient id="ear" x1="50" x2="207" y1="12" y2="110" gradientUnits="userSpaceOnUse">
      <stop stop-color="#F6C58D" />
      <stop offset="1" stop-color="#8C543B" />
    </linearGradient>
    <linearGradient id="card" x1="107" x2="160" y1="124" y2="197" gradientUnits="userSpaceOnUse">
      <stop stop-color="#F6B7CD" />
      <stop offset="1" stop-color="#E986AC" />
    </linearGradient>
  </defs>

  <g filter="url(#paper)">
    <path d="M71 96C58 66 50 35 55 22C72 30 91 46 104 65C112 62 121 60 130 60C140 60 149 62 158 65C171 46 190 30 207 22C212 36 203 68 190 98C204 116 212 141 212 170C212 214 177 236 130 236C83 236 48 214 48 170C48 140 56 115 71 96Z" fill="url(#fur)" stroke="#3C2A2A" stroke-width="4" stroke-linejoin="round" />
    <path d="M67 35C72 48 79 61 88 75" stroke="#704B36" stroke-width="4" stroke-linecap="round" />
    <path d="M194 35C188 50 181 63 172 76" stroke="#704B36" stroke-width="4" stroke-linecap="round" />
    <path d="M73 37L92 73L66 83" fill="#F2A7AE" opacity=".62" />
    <path d="M188 37L168 73L194 83" fill="#F2A7AE" opacity=".62" />

    <path d="M108 62C112 82 113 97 103 116" stroke="#52372B" stroke-width="5" stroke-linecap="round" />
    <path d="M130 59C128 80 128 100 130 119" stroke="#52372B" stroke-width="5" stroke-linecap="round" />
    <path d="M153 62C148 83 147 98 157 116" stroke="#52372B" stroke-width="5" stroke-linecap="round" />
    <path d="M70 118C83 119 95 123 104 132" stroke="#6A4633" stroke-width="4" stroke-linecap="round" />
    <path d="M191 118C178 119 166 123 156 132" stroke="#6A4633" stroke-width="4" stroke-linecap="round" />
    <path d="M65 147C80 143 94 143 106 149" stroke="#6A4633" stroke-width="4" stroke-linecap="round" />
    <path d="M195 147C180 143 166 143 154 149" stroke="#6A4633" stroke-width="4" stroke-linecap="round" />

    <path d="M92 139C101 130 113 130 121 139" stroke="#2D2722" stroke-width="4" stroke-linecap="round" />
    <path d="M139 139C148 130 160 130 168 139" stroke="#2D2722" stroke-width="4" stroke-linecap="round" />
    <ellipse cx="106" cy="145" rx="10" ry="13" fill="#8EDB9C" stroke="#2C2922" stroke-width="3" />
    <ellipse cx="153" cy="145" rx="10" ry="13" fill="#8EDB9C" stroke="#2C2922" stroke-width="3" />
    <path d="M105 138C106 143 106 150 104 154" stroke="#18231A" stroke-width="3" stroke-linecap="round" />
    <path d="M152 138C153 143 153 150 151 154" stroke="#18231A" stroke-width="3" stroke-linecap="round" />
    <path d="M130 160L121 171H139L130 160Z" fill="#EE8AA9" stroke="#3B292A" stroke-width="3" stroke-linejoin="round" />
    <path d="M119 184C123 190 137 190 142 184" stroke="#3C2A2A" stroke-width="4" stroke-linecap="round" />
    <path d="M85 168C62 163 43 164 24 173" stroke="#3C2A2A" stroke-width="3" stroke-linecap="round" />
    <path d="M86 183C63 183 44 188 28 199" stroke="#3C2A2A" stroke-width="3" stroke-linecap="round" />
    <path d="M174 168C197 163 217 164 237 173" stroke="#3C2A2A" stroke-width="3" stroke-linecap="round" />
    <path d="M174 183C197 183 216 188 232 199" stroke="#3C2A2A" stroke-width="3" stroke-linecap="round" />

    <g transform="translate(111 131) rotate(-16)">
      <rect x="0" y="0" width="48" height="70" rx="5" fill="#F6F1E7" stroke="#3C2A2A" stroke-width="4" />
      <rect x="8" y="9" width="32" height="51" rx="3" fill="url(#card)" stroke="#7EC8D9" stroke-width="3" />
      <path d="M24 24L33 43H15L24 24Z" stroke="#FFF3A2" stroke-width="4" stroke-linejoin="round" />
    </g>

    <path d="M24 220C79 211 176 211 235 220" stroke="#FFF1A8" stroke-width="6" stroke-linecap="round" opacity=".56" />
  </g>
</svg>
